<?xml version="1.0" encoding="UTF-8"?>
<svg width="21px" height="17px" viewBox="0 0 21 17" version="1.1" xmlns="http://www.w3.org/2000/svg" xmlns:xlink="http://www.w3.org/1999/xlink">
    <!-- Generator: Sketch 58 (84663) - https://sketch.com -->
    <title>icon-navigation-cart-white</title>
    <desc>Created with Sketch.</desc>
    <g id="icon-navigation-cart-white" stroke="none" stroke-width="1" fill="none" fill-rule="evenodd">
        <g id="icon-/-cart-/-white" fill="#FFFFFF">
            <path d="M8.33470074,14.4471119 C8.33470074,14.9270824 7.95461667,15.3537228 7.46593714,15.3537228 C6.97725762,15.3537228 6.59717355,14.9537474 6.59717355,14.4471119 C6.59717355,13.9671414 6.97725762,13.567166 7.46593714,13.567166 C7.95461667,13.567166 8.33470074,13.9671414 8.33470074,14.4471119 M7.49308601,11.9672643 C6.10849403,11.9672643 4.99539067,13.0871955 4.99539067,14.4471119 C4.99539067,15.8336933 6.10849403,16.9536245 7.49308601,16.9536245 C8.87767799,16.9536245 9.99078134,15.8336933 9.99078134,14.4471119 C9.96363248,13.0605305 8.85052912,11.9672643 7.49308601,11.9672643" id="Fill-1"></path>
            <path d="M17.3535528,14.4471119 C17.3535528,14.9270824 16.9734687,15.3537228 16.4847892,15.3537228 C15.9961097,15.3537228 15.6160256,14.9537474 15.6160256,14.4471119 C15.6160256,13.9671414 15.9961097,13.567166 16.4847892,13.567166 C16.9734687,13.567166 17.3535528,13.9671414 17.3535528,14.4471119 M16.4847892,11.9672643 C15.1001972,11.9672643 13.9870939,13.0871955 13.9870939,14.4471119 C13.9870939,15.8336933 15.1001972,16.9536245 16.4847892,16.9536245 C17.8691097,16.9536245 18.9824845,15.8336933 18.9824845,14.4471119 C18.9824845,13.0605305 17.8691097,11.9672643 16.4847892,11.9672643" id="Fill-3"></path>
            <path d="M5.70174831,4.07792771 L18.8578443,4.07792771 L17.1053437,9.51522824 L7.50361511,9.51522824 L5.70174831,4.07792771 Z M6.4150901,10.9460968 L18.1916472,10.9460968 L20.881859,2.64705914 L5.23276928,2.64705914 L4.41822676,0.143039161 L-4.93662137e-05,0.143039161 L-4.93662137e-05,1.57390772 L3.33217006,1.57390772 L6.4150901,10.9460968 Z" id="Fill-5"></path>
        </g>
    </g>
</svg>